<svg width="100" height="100" viewBox="0 0 100 100" fill="none" xmlns="http://www.w3.org/2000/svg">
<path d="M67.8282 21C66.4622 21 65.1762 21.5322 64.2097 22.4991L50.6491 36.0605C50.1731 36.5366 49.8096 36.5306 49.3423 36.0605L35.7787 22.4991C33.8541 20.5626 30.4782 20.5626 28.5446 22.4991L22.496 28.5481C20.5035 30.5437 20.5035 33.7871 22.496 35.7826L36.0596 49.3441C36.4203 49.7048 36.4203 50.2932 36.0596 50.6537L22.499 64.2181C21.5321 65.182 21 66.468 21 67.8338C21 69.2025 21.5321 70.4859 22.499 71.4525L28.5476 77.5044C30.5401 79.497 33.7833 79.5 35.7817 77.5044L49.3452 63.94C49.7088 63.5792 50.2943 63.5852 50.6548 63.94L64.2154 77.5044C66.2079 79.497 69.4511 79.5 71.4495 77.5044L77.501 71.4525C78.4679 70.4886 79 69.2025 79 67.8338C79 66.4677 78.4679 65.1847 77.501 64.2181L63.9375 50.6537C63.5767 50.2929 63.5767 49.7046 63.9375 49.3441L77.4981 35.7826C79.4906 33.787 79.4906 30.5436 77.4981 28.5481L71.4465 22.4991C70.4797 21.5322 69.1938 21 67.8282 21ZM49.9957 40.5218C51.3616 40.5218 52.6476 39.9896 53.6141 39.0227L67.1748 25.4612C67.6508 24.9852 68.0143 24.9912 68.4816 25.4612L74.5331 31.5102C74.8939 31.871 74.8939 32.4593 74.5331 32.8198L60.9725 46.3813C58.98 48.3769 58.98 51.6203 60.9725 53.6158L74.5361 67.1803C74.7726 67.4168 74.8052 67.6916 74.8052 67.8337C74.8052 67.9785 74.7696 68.2536 74.5361 68.4902L68.4845 74.5421C68.121 74.8999 67.5355 74.8999 67.175 74.5421L53.6144 60.9777C51.6189 58.9881 48.3757 58.9851 46.3803 60.9777L32.8167 74.5421C32.4532 74.8999 31.8677 74.8999 31.5072 74.5421L25.4586 68.4902C25.2221 68.2536 25.1895 67.9788 25.1895 67.8337C25.1895 67.6919 25.2251 67.4168 25.4586 67.1803L39.0221 53.6158C41.0146 51.6202 41.0146 48.3768 39.0221 46.3813L25.4586 32.8198C25.0978 32.4591 25.0978 31.8708 25.4586 31.5102L31.5072 25.4612C31.9802 24.9882 32.3437 24.9882 32.814 25.4612L46.3776 39.0227C47.3442 39.9896 48.6298 40.5218 49.9957 40.5218Z" fill="#FF9494"/>
</svg>
