<?xml version="1.0" encoding="UTF-8"?><svg id="Layer_2" xmlns="http://www.w3.org/2000/svg" viewBox="0 0 453.16 85.8"><defs><style>.cls-1{fill:#0a4468;}.cls-2{fill:#46bfd3;}</style></defs><g id="Layer_1-2"><g><g><path class="cls-1" d="M5.85,34.48c-.19,1.67-2.55,25.82,14.73,39.19,3.33,2.58,11.85,8.21,23.39,7.83,3.22-.1,11.64-.5,18.84-6.46,5.13-4.25,7.72-9.74,8.78-12.06,1.2-2.62,1.9-4.95,2.33-6.67,1.47,.67,2.95,1.33,4.42,2-.8,3.48-3.07,11.28-9.84,17.88-9.19,8.96-20.48,9.47-24.1,9.59-2.17,.08-16.16,.36-27.46-9.93C5.99,65.9,1.81,49.87,5.85,34.48Z"/><path class="cls-2" d="M.38,49.69C-.02,46.8-2.47,26.21,12.96,11.55,14.64,9.95,26.84-1.28,43.65,.12c0,0,14.06,1.17,25.19,11.32,.63,.57,1.28,1.11,1.9,1.69,3.04,2.84,3.94,4.37,5.9,4.67,.39,.06,.97,.09,1.69-.07-1.23,4.15-2.46,8.29-3.69,12.44h0c-.34-1.73-.98-4.13-2.24-6.8-2.25-4.73-5.21-7.61-6.77-9.1C55.59,4.7,42.83,3.92,42.83,3.92c-13.96-.86-23.61,7.21-26.17,9.42,0,0-13.11,11.27-13.99,30.57-.04,.84-.05,1.49-.05,1.91-.09,7.66,1.9,13.85,2.93,16.63,2.17,5.86,5.1,10.2,7.31,12.98-3.11-3.3-10.64-12.18-12.49-25.74Z"/></g><g><path class="cls-2" d="M109.27,26.33c3.46,0,6.67,.62,9.61,1.86,2.94,1.24,5.47,3,7.59,5.29,2.12,2.29,3.77,5.04,4.96,8.26,1.19,3.22,1.79,6.81,1.79,10.76s-.59,7.52-1.76,10.77c-1.18,3.25-2.82,6.04-4.94,8.38-2.12,2.34-4.64,4.15-7.56,5.43-2.92,1.28-6.15,1.93-9.67,1.93s-6.76-.64-9.7-1.93c-2.94-1.28-5.47-3.08-7.59-5.41-2.12-2.32-3.77-5.1-4.94-8.35-1.18-3.25-1.76-6.85-1.76-10.81s.6-7.59,1.79-10.81c1.19-3.22,2.85-5.96,4.99-8.24,2.13-2.27,4.66-4.03,7.59-5.27s6.13-1.86,9.63-1.86Zm-.05,48.96c2.91,0,5.59-.5,8.05-1.51s4.59-2.48,6.38-4.43c1.79-1.95,3.19-4.34,4.18-7.17,.99-2.83,1.48-6.06,1.48-9.68s-.5-6.87-1.51-9.65c-1.01-2.78-2.4-5.13-4.18-7.03-1.78-1.9-3.88-3.34-6.31-4.32-2.43-.97-5.08-1.46-7.96-1.46s-5.64,.5-8.1,1.49c-2.46,.99-4.59,2.44-6.38,4.34-1.79,1.9-3.19,4.25-4.2,7.03-1.01,2.78-1.51,5.99-1.51,9.61s.49,6.84,1.48,9.68c.99,2.83,2.37,5.22,4.15,7.17,1.78,1.95,3.9,3.43,6.36,4.43,2.46,1,5.14,1.51,8.05,1.51Z"/><path class="cls-2" d="M183.1,78.07h-4.87l-31-46.4v46.4h-3.71V27.26h5.1l30.77,46.31V27.26h3.71v50.81Z"/><path class="cls-2" d="M235.67,27.26l-19.91,50.81h-4.78l-19.91-50.81h4.13l18.19,46.17,18.19-46.17h4.08Z"/><path class="cls-2" d="M280.87,78.07h-36.71V27.26h35.45v3.71h-31.74v18.79h29.74v3.71h-29.74v20.88h32.99v3.71Z"/><path class="cls-2" d="M331.4,78.07h-4.87l-31-46.4v46.4h-3.71V27.26h5.1l30.76,46.31V27.26h3.71v50.81Z"/><path class="cls-2" d="M349.59,78.07h-3.71V27.26h3.71v50.81Z"/><path class="cls-2" d="M405.09,78.07h-4.08l-5.06-13.5c-.5-1.3-1.04-2.52-1.65-3.67-.6-1.14-1.31-2.14-2.11-2.99-.8-.85-1.73-1.52-2.76-2.02-1.04-.49-2.25-.74-3.64-.74h-17.77v22.92h-3.71V27.26h22.88c2.13,0,4.2,.19,6.19,.58,2,.39,3.77,1.08,5.34,2.07,1.56,.99,2.81,2.36,3.74,4.11,.93,1.75,1.39,3.98,1.39,6.71,0,1.7-.21,3.29-.63,4.76s-1.05,2.78-1.9,3.94c-.85,1.16-1.93,2.15-3.25,2.97-1.32,.82-2.85,1.42-4.62,1.79,.96,.74,1.75,1.45,2.37,2.13,.62,.68,1.15,1.41,1.6,2.18,.45,.77,.85,1.62,1.21,2.55,.36,.93,.77,2,1.23,3.2l5.24,13.83Zm-37.08-26.63h17.63c2.51,0,4.66-.19,6.45-.56,1.79-.37,3.27-.98,4.43-1.83,1.16-.85,2.02-1.96,2.58-3.32s.83-3.03,.83-5.01c0-3.5-1.11-5.99-3.32-7.49-2.21-1.5-5.51-2.25-9.91-2.25h-18.7v20.46Z"/><path class="cls-2" d="M453.16,78.07h-36.71V27.26h35.45v3.71h-31.74v18.79h29.74v3.71h-29.74v20.88h32.99v3.71Z"/></g></g></g></svg>