<svg width="48" height="48" viewBox="0 0 48 48" fill="none" xmlns="http://www.w3.org/2000/svg">
<path d="M32.47 13.9999H15.53C15.3396 13.9973 15.1505 14.0321 14.9736 14.1026C14.7966 14.173 14.6353 14.2776 14.4988 14.4104C14.3623 14.5432 14.2533 14.7016 14.178 14.8765C14.1027 15.0514 14.0626 15.2395 14.06 15.4299V32.5699C14.0626 32.7603 14.1027 32.9484 14.178 33.1233C14.2533 33.2982 14.3623 33.4566 14.4988 33.5894C14.6353 33.7222 14.7966 33.8268 14.9736 33.8972C15.1505 33.9676 15.3396 34.0025 15.53 33.9999H32.47C32.6604 34.0025 32.8495 33.9676 33.0264 33.8972C33.2034 33.8268 33.3647 33.7222 33.5012 33.5894C33.6377 33.4566 33.7467 33.2982 33.822 33.1233C33.8973 32.9484 33.9374 32.7603 33.94 32.5699V15.4299C33.9374 15.2395 33.8973 15.0514 33.822 14.8765C33.7467 14.7016 33.6377 14.5432 33.5012 14.4104C33.3647 14.2776 33.2034 14.173 33.0264 14.1026C32.8495 14.0321 32.6604 13.9973 32.47 13.9999ZM20.09 30.7399H17.09V21.7399H20.09V30.7399ZM18.59 20.4799C18.1763 20.4799 17.7795 20.3155 17.4869 20.023C17.1944 19.7304 17.03 19.3336 17.03 18.9199C17.03 18.5062 17.1944 18.1094 17.4869 17.8168C17.7795 17.5243 18.1763 17.3599 18.59 17.3599C18.8097 17.335 19.0322 17.3567 19.2429 17.4238C19.4536 17.4908 19.6477 17.6016 19.8127 17.7489C19.9776 17.8961 20.1095 18.0766 20.1999 18.2784C20.2902 18.4802 20.3369 18.6988 20.3369 18.9199C20.3369 19.141 20.2902 19.3596 20.1999 19.5614C20.1095 19.7632 19.9776 19.9437 19.8127 20.0909C19.6477 20.2382 19.4536 20.349 19.2429 20.416C19.0322 20.483 18.8097 20.5048 18.59 20.4799ZM30.91 30.7399H27.91V25.9099C27.91 24.6999 27.48 23.9099 26.39 23.9099C26.0527 23.9124 25.7242 24.0182 25.4488 24.2131C25.1735 24.408 24.9645 24.6826 24.85 24.9999C24.7717 25.2349 24.7378 25.4825 24.75 25.7299V30.7299H21.75C21.75 30.7299 21.75 22.5499 21.75 21.7299H24.75V22.9999C25.0225 22.527 25.4189 22.1374 25.8964 21.8731C26.374 21.6088 26.9146 21.4797 27.46 21.4999C29.46 21.4999 30.91 22.7899 30.91 25.5599V30.7399Z" fill="white"/>
</svg>
