<svg width="226" height="80" viewBox="0 0 226 80" fill="none" xmlns="http://www.w3.org/2000/svg">
<path d="M48.4834 14V2.45205H52.2448C52.9926 2.45205 53.6525 2.60602 54.2244 2.91397C54.8073 3.22191 55.2582 3.65084 55.5772 4.20074C55.9071 4.75064 56.0721 5.38853 56.0721 6.1144C56.0721 6.81827 55.9236 7.44516 55.6267 7.99507C55.3297 8.54497 54.9228 8.97939 54.4059 9.29833C53.889 9.60628 53.2896 9.76025 52.6077 9.76025H49.8857V14H48.4834ZM49.8857 8.48998H52.6077C53.2126 8.48998 53.7075 8.27002 54.0925 7.8301C54.4884 7.37918 54.6863 6.80728 54.6863 6.1144C54.6863 5.39953 54.4554 4.82213 53.9935 4.38221C53.5316 3.94229 52.9432 3.72232 52.2283 3.72232H49.8857V8.48998ZM63.6129 14.198C62.5021 14.198 61.5178 13.945 60.66 13.4391C59.8021 12.9332 59.1312 12.2293 58.6473 11.3275C58.1634 10.4256 57.9214 9.39182 57.9214 8.22602C57.9214 7.04923 58.1579 6.01542 58.6308 5.12458C59.1147 4.22274 59.7801 3.51886 60.627 3.01295C61.4738 2.50704 62.4526 2.25409 63.5634 2.25409C64.6742 2.25409 65.6531 2.51254 66.4999 3.02945C67.3578 3.53536 68.0232 4.23923 68.4961 5.14107C68.969 6.03191 69.2054 7.06023 69.2054 8.22602C69.2054 9.39182 68.969 10.4256 68.4961 11.3275C68.0232 12.2293 67.3633 12.9332 66.5164 13.4391C65.6806 13.945 64.7127 14.198 63.6129 14.198ZM63.6129 12.9277C64.4378 12.9277 65.1637 12.7297 65.7905 12.3338C66.4174 11.9269 66.9069 11.3715 67.2588 10.6676C67.6217 9.96372 67.8032 9.14986 67.8032 8.22602C67.8032 7.31319 67.6217 6.50483 67.2588 5.80096C66.8959 5.08608 66.3954 4.53068 65.7576 4.13475C65.1307 3.72782 64.3993 3.52436 63.5634 3.52436C62.7386 3.52436 62.0072 3.72782 61.3693 4.13475C60.7314 4.53068 60.231 5.08608 59.8681 5.80096C59.5052 6.50483 59.3237 7.31319 59.3237 8.22602C59.3237 9.14986 59.5052 9.96372 59.8681 10.6676C60.231 11.3715 60.7369 11.9269 61.3858 12.3338C62.0347 12.7297 62.7771 12.9277 63.6129 12.9277ZM81.1919 14L84.7552 2.45205H86.1575L82.5776 14H81.1919ZM74.1641 14L70.6337 2.45205H72.036L75.5334 14H74.1641ZM74.3126 14L77.711 2.45205H79.0472L75.6488 14H74.3126ZM81.0764 14L77.7605 2.45205H79.0967L82.4621 14H81.0764ZM88.5159 14V2.45205H95.3457V3.72232H89.9182V7.45066H94.8673V8.70444H89.9182V12.7297H95.3787V14H88.5159ZM98.9387 14V2.45205H102.7C103.448 2.45205 104.108 2.60052 104.68 2.89747C105.263 3.19442 105.714 3.60685 106.032 4.13475C106.362 4.66266 106.527 5.26755 106.527 5.94943C106.527 6.63131 106.351 7.2362 105.999 7.76411C105.648 8.29201 105.169 8.70994 104.564 9.01788C103.959 9.31483 103.277 9.46331 102.519 9.46331H100.341V14H98.9387ZM105.455 14L102.684 9.26534L103.789 8.53947L106.989 14H105.455ZM100.341 8.17653H102.898C103.316 8.17653 103.69 8.08305 104.02 7.89608C104.35 7.69812 104.614 7.43417 104.812 7.10422C105.021 6.76328 105.125 6.37835 105.125 5.94943C105.125 5.28955 104.894 4.75614 104.432 4.34921C103.981 3.93129 103.393 3.72232 102.667 3.72232H100.341V8.17653ZM109.925 14V2.45205H116.755V3.72232H111.328V7.45066H116.277V8.70444H111.328V12.7297H116.788V14H109.925ZM120.348 14V2.45205H123.862C124.951 2.45205 125.908 2.69951 126.733 3.19442C127.568 3.67833 128.223 4.35471 128.696 5.22356C129.169 6.0924 129.405 7.09323 129.405 8.22602C129.405 9.34783 129.169 10.3431 128.696 11.212C128.223 12.0808 127.568 12.7627 126.733 13.2576C125.908 13.7525 124.951 14 123.862 14H120.348ZM121.75 12.7132H123.862C124.445 12.7132 124.984 12.6032 125.479 12.3833C125.974 12.1523 126.408 11.8279 126.782 11.41C127.167 10.992 127.464 10.5136 127.673 9.97471C127.893 9.42481 128.003 8.84192 128.003 8.22602C128.003 7.61013 127.893 7.03274 127.673 6.49383C127.464 5.94393 127.167 5.46002 126.782 5.04209C126.408 4.62416 125.974 4.30522 125.479 4.08526C124.984 3.8543 124.445 3.73882 123.862 3.73882H121.75V12.7132ZM137.102 14V2.45205H140.748C141.539 2.45205 142.216 2.57303 142.777 2.81499C143.338 3.05694 143.772 3.41438 144.08 3.8873C144.388 4.34921 144.542 4.91561 144.542 5.58649C144.542 6.14739 144.415 6.64231 144.162 7.07123C143.91 7.48916 143.552 7.8301 143.09 8.09405C143.662 8.369 144.102 8.73743 144.41 9.19935C144.729 9.66127 144.888 10.2112 144.888 10.8491C144.888 11.5199 144.74 12.0918 144.443 12.5648C144.146 13.0267 143.723 13.3841 143.173 13.6371C142.634 13.879 141.985 14 141.226 14H137.102ZM138.487 12.7462H141.16C141.886 12.7462 142.452 12.5758 142.859 12.2348C143.277 11.8829 143.486 11.4045 143.486 10.7996C143.486 10.1507 143.25 9.64477 142.777 9.28184C142.304 8.9079 141.644 8.72094 140.797 8.72094H138.487V12.7462ZM138.487 7.51665H141.094C141.732 7.51665 142.232 7.34618 142.595 7.00524C142.958 6.6643 143.14 6.19139 143.14 5.58649C143.14 4.9596 142.925 4.48119 142.496 4.15125C142.078 3.81031 141.484 3.63984 140.715 3.63984H138.487V7.51665ZM151.971 9.19935L150.767 8.62195L154.528 2.45205H156.128L151.971 9.19935ZM150.602 14V8.45698H151.987V14H150.602ZM150.618 9.19935L146.461 2.45205H148.078L151.823 8.62195L150.618 9.19935Z" fill="#140C27"/>
<path d="M210.295 23.9755C210.242 23.98 210.187 23.9722 210.138 23.9527C205.912 22.2867 202.589 20.96 201.081 20.3564C200.784 20.2372 200.501 20.5575 200.655 20.8392L203.108 25.3368C203.214 25.5319 203.11 25.775 202.895 25.8315L202.188 26.0172C202.03 26.0587 201.924 26.2057 201.934 26.3685L202.248 31.6429C202.26 31.8461 202.446 31.9938 202.647 31.9598L203.574 31.8029C203.815 31.762 204.02 31.9804 203.964 32.2186L202.781 37.2425C202.706 37.563 203.083 37.7946 203.335 37.5828L211.463 30.7507C211.495 30.7246 211.525 30.7059 211.564 30.6922C212.47 30.3672 224.683 25.9709 225.913 24.6836C225.981 24.6132 225.95 24.5428 225.856 24.5182C224.952 24.2822 219.82 23.1578 210.295 23.9755Z" fill="#A274FF"/>
<path fill-rule="evenodd" clip-rule="evenodd" d="M18.7361 24.9622C18.6114 24.8375 18.4599 24.7751 18.2817 24.7751H0.614737C0.436552 24.7751 0.285095 24.8375 0.160366 24.9622C0.0534554 25.087 0 25.2295 0 25.3899V30.5751C0 30.7354 0.0623646 30.878 0.187094 31.0027C0.311823 31.1274 0.46328 31.1898 0.641465 31.1898H6.14737V41.7712L12.8293 41.2794V31.1898H18.255C18.451 31.1898 18.6114 31.1363 18.7361 31.0294C18.8608 30.9047 18.9232 30.7532 18.9232 30.5751V25.3899C18.9232 25.2117 18.8608 25.0692 18.7361 24.9622ZM12.8293 50.528L6.14737 51.2777V62.4879C6.14737 62.6661 6.20973 62.8176 6.33446 62.9423C6.47701 63.067 6.63738 63.1383 6.81556 63.1561H12.1611C12.3571 63.1383 12.5086 63.0759 12.6155 62.969C12.7402 62.8443 12.8115 62.6839 12.8293 62.4879V50.528ZM23.0125 49.3854L29.6677 48.6387V55.218C29.6677 55.5744 29.7836 55.8773 30.0152 56.1267C30.2647 56.3584 30.5765 56.4831 30.9507 56.5009H33.7036C34.0422 56.4831 34.3273 56.3673 34.5589 56.1535C34.8084 55.9218 34.9509 55.6367 34.9866 55.2982V48.042L41.6418 47.2953V56.5009V56.6613C41.5705 58.461 40.929 59.9755 39.7174 61.205C38.5235 62.4167 37.0268 63.067 35.2271 63.1561H35.1469H35.1202H29.5341H29.5074H29.4272C27.6453 63.067 26.1575 62.4434 24.9637 61.2852C23.7698 60.1092 23.1195 58.6391 23.0125 56.8751V49.3854ZM41.6418 39.1587V31.4571V31.2967C41.5705 29.4792 40.929 27.9647 39.7174 26.753C38.5235 25.5235 37.0268 24.8642 35.2271 24.7751H35.1469H35.1202H29.5341H29.5074H29.4272C27.6453 24.8642 26.1575 25.4968 24.9637 26.6728C23.7698 27.8488 23.1195 29.3099 23.0125 31.0562V40.5299L29.6677 40.04V32.74C29.6677 32.3836 29.7836 32.0807 30.0152 31.8313C30.2647 31.5818 30.5765 31.4571 30.9507 31.4571H33.7036C34.0422 31.4571 34.3273 31.5729 34.5589 31.8045C34.8084 32.0184 34.9509 32.2945 34.9866 32.6331V39.6485L41.6418 39.1587ZM45.7311 46.8365V62.4879C45.7311 62.6839 45.7935 62.8443 45.9182 62.969C46.0429 63.0938 46.1944 63.1561 46.3726 63.1561H51.7448C51.923 63.1561 52.0745 63.0938 52.1992 62.969C52.3239 62.8443 52.3863 62.6928 52.3863 62.5147V46.0898L45.7311 46.8365ZM55.4911 45.7415L57.2775 49.1775C57.3487 49.3201 57.4467 49.427 57.5715 49.4983C57.714 49.5517 57.8566 49.5606 57.9991 49.525C58.1417 49.5606 58.2753 49.5517 58.4 49.4983C58.5426 49.427 58.6495 49.3201 58.7207 49.1775L60.8178 45.1438L55.4911 45.7415ZM63.6119 44.8303V62.5147C63.6119 62.6928 63.6743 62.8443 63.799 62.969C63.9237 63.0938 64.0752 63.1561 64.2534 63.1561H69.6256C69.8038 63.1561 69.9553 63.0938 70.08 62.969C70.2047 62.8443 70.2671 62.6839 70.2671 62.4879V44.0836L63.6119 44.8303ZM70.2671 37.0517L45.7311 38.8577V25.4433C45.7311 25.2652 45.7935 25.1137 45.9182 24.989C46.0429 24.8464 46.1944 24.7751 46.3726 24.7751H51.7448C51.9943 24.7751 52.1903 24.891 52.3328 25.1226L57.9991 36.1344L63.6921 25.1226C63.8168 24.891 64.0039 24.7751 64.2534 24.7751H69.6256C69.8038 24.7751 69.9553 24.8464 70.08 24.989C70.2047 25.1137 70.2671 25.2652 70.2671 25.4433V37.0517ZM74.3832 43.6218V43.9656V56.8751C74.4901 58.6391 75.1405 60.1092 76.3343 61.2852C77.5281 62.4434 79.016 63.067 80.7978 63.1561H80.878H80.9047H86.4908H86.5176H86.5977C88.3974 63.067 89.8942 62.4167 91.088 61.205C92.2996 59.9755 92.9411 58.461 93.0124 56.6613V56.5009V41.5317L86.3572 42.2784V55.2982C86.3216 55.6367 86.179 55.9218 85.9295 56.1535C85.6979 56.3673 85.4128 56.4831 85.0743 56.5009H82.3213C81.9471 56.4831 81.6353 56.3584 81.3858 56.1267C81.1542 55.8773 81.0384 55.5744 81.0384 55.218V43.9656V42.8751L74.3832 43.6218ZM81.0384 36.2589L74.3832 36.7487V31.0562C74.4901 29.3099 75.1405 27.8488 76.3343 26.6728C77.5281 25.4968 79.016 24.8642 80.7978 24.7751H80.878H80.9047H86.4908H86.5176H86.5977C88.3974 24.8642 89.8942 25.5235 91.088 26.753C92.2996 27.9647 92.9411 29.4792 93.0124 31.2967V31.4571V35.3775L86.3572 35.8674V32.6331C86.3216 32.2945 86.179 32.0184 85.9295 31.8045C85.6979 31.5729 85.4128 31.4571 85.0743 31.4571H82.3213C81.9471 31.4571 81.6353 31.5818 81.3858 31.8313C81.1542 32.0807 81.0384 32.3836 81.0384 32.74V36.2589ZM97.1552 41.0669V43.9656V47.2531V62.4879C97.1552 62.6839 97.2175 62.8443 97.3423 62.969C97.467 63.0938 97.6185 63.1561 97.7966 63.1561H103.169C103.347 63.1561 103.499 63.0938 103.623 62.969C103.748 62.8443 103.81 62.6928 103.81 62.5147V47.9748L108.114 62.5948C108.149 62.7552 108.22 62.8888 108.327 62.9958C108.452 63.0848 108.586 63.1383 108.728 63.1561H114.662C114.84 63.1205 114.983 63.0403 115.089 62.9156C115.196 62.773 115.241 62.6127 115.223 62.4345L110.706 47.5739C111.579 47.271 112.354 46.8166 113.031 46.2108C113.709 45.6049 114.243 44.8833 114.635 44.0458C115.027 43.1905 115.223 42.2729 115.223 41.2929V39.0397L108.568 39.7864V40.0367C108.532 40.3574 108.408 40.6247 108.194 40.8385C107.998 41.0523 107.748 41.186 107.445 41.2394H103.81V40.3202L97.1552 41.0669ZM103.81 34.5828L97.1552 35.0726V25.4433C97.1552 25.2652 97.2175 25.1137 97.3423 24.989C97.467 24.8464 97.6274 24.7751 97.8234 24.7751H103.169C103.187 24.7751 103.213 24.7841 103.249 24.8019H109.022C110.198 24.8731 111.25 25.2117 112.176 25.8175C113.103 26.4234 113.842 27.2074 114.395 28.1696C114.947 29.1318 115.223 30.2009 115.223 31.3769V33.7427L108.568 34.2326V32.6598C108.532 32.3213 108.408 32.0451 108.194 31.8313C107.98 31.5996 107.704 31.4749 107.365 31.4571H103.81V34.5828ZM119.446 38.5659V43.9656V47.2531V62.4879C119.446 62.6839 119.508 62.8443 119.633 62.969C119.758 63.0938 119.909 63.1561 120.088 63.1561H125.46C125.638 63.1561 125.789 63.0938 125.914 62.969C126.039 62.8443 126.101 62.6928 126.101 62.5147V47.9748L130.404 62.5948C130.44 62.7552 130.511 62.8888 130.618 62.9958C130.743 63.0848 130.877 63.1383 131.019 63.1561H136.953C137.131 63.1205 137.273 63.0403 137.38 62.9156C137.487 62.773 137.532 62.6127 137.514 62.4345L132.997 47.5739C133.87 47.271 134.645 46.8166 135.322 46.2108C135.999 45.6049 136.534 44.8833 136.926 44.0458C137.318 43.1905 137.514 42.2729 137.514 41.2929V36.5387L130.859 37.2854V40.0367C130.823 40.3574 130.698 40.6247 130.485 40.8385C130.289 41.0523 130.039 41.186 129.736 41.2394H126.101V37.8192L119.446 38.5659ZM126.101 32.942L119.446 33.4319V25.4433C119.446 25.2652 119.508 25.1137 119.633 24.989C119.758 24.8464 119.918 24.7751 120.114 24.7751H125.46C125.478 24.7751 125.504 24.7841 125.54 24.8019H131.313C132.489 24.8731 133.54 25.2117 134.467 25.8175C135.394 26.4234 136.133 27.2074 136.685 28.1696C137.238 29.1318 137.514 30.2009 137.514 31.3769V32.102L130.85 32.5925C130.806 32.2845 130.684 32.0307 130.485 31.8313C130.271 31.5996 129.995 31.4749 129.656 31.4571H126.101V32.942ZM141.684 36.0709V43.9656V56.8751C141.79 58.6391 142.441 60.1092 143.635 61.2852C144.828 62.4434 146.316 63.067 148.098 63.1561H148.178H148.205H153.791H153.818H153.898C155.698 63.067 157.194 62.4167 158.388 61.205C159.6 59.9755 160.241 58.461 160.313 56.6613V56.5009V33.9808L153.658 34.7275V55.2982C153.622 55.6367 153.479 55.9218 153.23 56.1535C152.998 56.3673 152.713 56.4831 152.375 56.5009H149.622C149.247 56.4831 148.936 56.3584 148.686 56.1267C148.455 55.8773 148.339 55.5744 148.339 55.218V43.9656V35.3242L141.684 36.0709ZM160.232 30.4298L141.684 31.7951V31.0562C141.79 29.3099 142.441 27.8488 143.635 26.6728C144.828 25.4968 146.316 24.8642 148.098 24.7751H148.178H148.205H153.791H153.818H153.898C155.698 24.8642 157.194 25.5235 158.388 26.753C159.402 27.7666 160.017 28.9922 160.232 30.4298ZM165.423 33.4075L169.293 62.5414V62.6216C169.329 62.7641 169.4 62.8888 169.507 62.9958C169.614 63.0848 169.748 63.1383 169.908 63.1561H171.779H176.617H178.488C178.79 63.1205 178.986 62.9512 179.076 62.6483L180.546 51.5028L182.016 62.5414L182.042 62.6216C182.078 62.7641 182.149 62.8888 182.256 62.9958C182.363 63.0848 182.488 63.1383 182.63 63.1561H184.501H189.339H191.21C191.531 63.1205 191.727 62.9512 191.798 62.6483L196.149 29.9601L189.2 30.7398L186.934 52.3314L184.7 31.2447L176.319 32.185L174.184 52.3314L172.119 32.6561L165.423 33.4075ZM171.796 29.5787L164.981 30.0803L164.375 25.5235C164.358 25.3453 164.393 25.185 164.482 25.0424C164.589 24.8999 164.732 24.8108 164.91 24.7751H170.737C170.897 24.793 171.031 24.8553 171.137 24.9622C171.244 25.0513 171.316 25.1761 171.351 25.3364L171.796 29.5787ZM176.633 29.2227L184.425 28.6492L184.074 25.3364C184.056 25.1761 183.985 25.0513 183.86 24.9622C183.753 24.8553 183.619 24.793 183.459 24.7751H177.659C177.499 24.793 177.356 24.8553 177.231 24.9622C177.124 25.0513 177.062 25.1761 177.044 25.3364L176.633 29.2227ZM189.458 28.2787L196.441 27.7647L196.743 25.4968C196.76 25.3186 196.716 25.1672 196.609 25.0424C196.52 24.8999 196.386 24.8108 196.208 24.7751H190.381C190.221 24.793 190.087 24.8553 189.98 24.9622C189.874 25.0513 189.802 25.1761 189.767 25.3364L189.458 28.2787Z" fill="#140C27"/>
<path d="M7.19395 70.4512V78.0045C7.19395 78.3573 7.11109 78.6807 6.94538 78.9747C6.77967 79.2633 6.55516 79.4985 6.27184 79.6803C5.99387 79.8567 5.68116 79.9556 5.3337 79.977L5.21343 79.985H1.79763C1.73882 79.985 1.69071 79.9663 1.6533 79.9289C1.61588 79.8914 1.59717 79.8433 1.59717 79.7845V68.6712C1.59717 68.6177 1.61588 68.5723 1.6533 68.5348C1.69606 68.4921 1.74417 68.4707 1.79763 68.4707H5.21343L5.3337 68.4787C5.68116 68.5001 5.99387 68.6017 6.27184 68.7834C6.55516 68.9652 6.77967 69.2004 6.94538 69.489C7.11109 69.7777 7.19395 70.0984 7.19395 70.4512ZM5.18937 70.8361C5.18402 70.7345 5.14661 70.6517 5.07711 70.5875C5.01297 70.518 4.93278 70.4806 4.83656 70.4753H3.60175V77.9884H4.8526C4.94882 77.9724 5.02633 77.9323 5.08513 77.8682C5.14928 77.804 5.18402 77.7238 5.18937 77.6276V70.8361Z" fill="#A274FF"/>
<path d="M13.0447 68.6631V79.7926C13.0394 79.846 13.018 79.8914 12.9806 79.9289C12.9485 79.9663 12.9031 79.985 12.8443 79.985H11.2406C11.1818 79.985 11.1337 79.9663 11.0963 79.9289C11.0589 79.8914 11.0402 79.8433 11.0402 79.7845V68.6712C11.0402 68.6177 11.0589 68.5723 11.0963 68.5348C11.1391 68.4921 11.1872 68.4707 11.2406 68.4707H12.8443C12.8977 68.4707 12.9432 68.4894 12.9806 68.5268C13.018 68.5643 13.0394 68.6097 13.0447 68.6631Z" fill="#A274FF"/>
<path d="M20.6034 68.4707C21.1487 68.4974 21.6004 68.6952 21.9585 69.0641C22.322 69.4276 22.5118 69.8819 22.5278 70.4272V71.5578C22.5278 71.6166 22.5091 71.6647 22.4717 71.7021C22.4396 71.7342 22.3969 71.7529 22.3434 71.7582H20.7237C20.6703 71.7529 20.6248 71.7315 20.5874 71.6941C20.55 71.6566 20.5313 71.6112 20.5313 71.5578V70.8281C20.5206 70.7265 20.4805 70.6437 20.411 70.5795C20.3415 70.51 20.2533 70.4753 20.1464 70.4753H19.3205C19.2136 70.4753 19.1227 70.5127 19.0479 70.5875C18.9731 70.6624 18.9356 70.7532 18.9356 70.8602V77.6036C18.9356 77.7105 18.9731 77.8013 19.0479 77.8762C19.1227 77.9457 19.2136 77.9831 19.3205 77.9884H20.1464C20.2533 77.9831 20.3415 77.9483 20.411 77.8842C20.4805 77.8147 20.5206 77.7292 20.5313 77.6276V75.2301H19.8738C19.8203 75.2248 19.7749 75.2061 19.7375 75.174C19.7054 75.1366 19.6894 75.0912 19.6894 75.0377V73.426C19.6894 73.3672 19.7081 73.3218 19.7455 73.2897C19.7829 73.2523 19.8283 73.2336 19.8818 73.2336H22.3434C22.3969 73.2336 22.4396 73.2523 22.4717 73.2897C22.5091 73.3271 22.5278 73.3726 22.5278 73.426V78.0365C22.5118 78.5764 22.322 79.0308 21.9585 79.3997C21.6004 79.7632 21.1487 79.9583 20.6034 79.985C20.5981 79.985 20.5901 79.985 20.5794 79.985C20.5794 79.985 20.5767 79.985 20.5714 79.985H18.8955C18.8955 79.985 18.8929 79.985 18.8875 79.985C18.8822 79.985 18.8742 79.985 18.8635 79.985C18.3343 79.9583 17.8906 79.7712 17.5324 79.4237C17.1743 79.0709 16.9765 78.6299 16.9391 78.1007V70.355C16.9765 69.8311 17.1743 69.3928 17.5324 69.04C17.8906 68.6872 18.3343 68.4974 18.8635 68.4707C18.8742 68.4707 18.8822 68.4707 18.8875 68.4707C18.8929 68.4707 18.8955 68.4707 18.8955 68.4707H20.5714C20.5767 68.4707 20.5794 68.4707 20.5794 68.4707C20.5901 68.4707 20.5981 68.4707 20.6034 68.4707Z" fill="#A274FF"/>
<path d="M28.4027 68.6631V79.7926C28.3974 79.846 28.376 79.8914 28.3385 79.9289C28.3065 79.9663 28.261 79.985 28.2022 79.985H26.5986C26.5398 79.985 26.4917 79.9663 26.4542 79.9289C26.4168 79.8914 26.3981 79.8433 26.3981 79.7845V68.6712C26.3981 68.6177 26.4168 68.5723 26.4542 68.5348C26.497 68.4921 26.5451 68.4707 26.5986 68.4707H28.2022C28.2557 68.4707 28.3011 68.4894 28.3385 68.5268C28.376 68.5643 28.3974 68.6097 28.4027 68.6631Z" fill="#A274FF"/>
<path d="M37.7415 68.4707C37.7949 68.4707 37.8404 68.4894 37.8778 68.5268C37.9152 68.5589 37.9339 68.6017 37.9339 68.6551V70.2107C37.9339 70.2641 37.9152 70.3096 37.8778 70.347C37.8404 70.3791 37.7922 70.3951 37.7334 70.3951H36.1057V79.7845C36.1004 79.8433 36.079 79.8914 36.0416 79.9289C36.0095 79.9609 35.9641 79.9796 35.9053 79.985H34.3016C34.2481 79.9796 34.2 79.9583 34.1573 79.9208C34.1199 79.8834 34.1011 79.838 34.1011 79.7845V70.3951H32.4494C32.3959 70.3951 32.3505 70.3764 32.3131 70.339C32.2756 70.3015 32.2569 70.2588 32.2569 70.2107V68.6551C32.2569 68.607 32.273 68.5643 32.305 68.5268C32.3425 68.4894 32.3879 68.4707 32.4414 68.4707H37.7415Z" fill="#A274FF"/>
<path d="M45.7652 79.985C45.7171 79.9796 45.6743 79.9636 45.6369 79.9369C45.6049 79.9048 45.5861 79.8647 45.5808 79.8166L45.4044 78.1488H44.0493L43.8729 79.8246C43.8622 79.8674 43.8408 79.9048 43.8088 79.9369C43.7767 79.9636 43.7366 79.9796 43.6885 79.985H41.9405C41.887 79.9743 41.8443 79.9502 41.8122 79.9128C41.7855 79.8701 41.7748 79.8193 41.7801 79.7605L43.2555 68.6551L43.2635 68.6311C43.2689 68.5883 43.2876 68.5536 43.3196 68.5268C43.3517 68.4948 43.3918 68.476 43.4399 68.4707H46.0138C46.1047 68.4867 46.1635 68.5375 46.1902 68.6231L47.6736 79.7685C47.6789 79.822 47.6656 79.8701 47.6335 79.9128C47.6014 79.9502 47.5586 79.9743 47.5052 79.985H45.7652ZM44.2578 76.1442H45.1959L44.7228 71.7261L44.2578 76.1442Z" fill="#A274FF"/>
<path d="M56.5393 78.1809V79.7845C56.5393 79.838 56.5205 79.8834 56.4831 79.9208C56.4511 79.9583 56.4083 79.9796 56.3548 79.985H51.7283C51.6748 79.985 51.6294 79.9663 51.592 79.9289C51.5545 79.8914 51.5358 79.8433 51.5358 79.7845V68.6712C51.5358 68.6177 51.5545 68.5723 51.592 68.5348C51.6294 68.4921 51.6748 68.4707 51.7283 68.4707H53.34C53.3934 68.4707 53.4388 68.4894 53.4763 68.5268C53.5137 68.5643 53.5324 68.6097 53.5324 68.6631V77.9884H56.3388C56.3976 77.9884 56.4457 78.0071 56.4831 78.0446C56.5205 78.082 56.5393 78.1274 56.5393 78.1809Z" fill="#A274FF"/>
<path d="M72.5788 68.4707C72.6322 68.4707 72.6777 68.4894 72.7151 68.5268C72.7525 68.5589 72.7712 68.6017 72.7712 68.6551V70.2107C72.7712 70.2641 72.7525 70.3096 72.7151 70.347C72.6777 70.3791 72.6295 70.3951 72.5707 70.3951H70.943V79.7845C70.9377 79.8433 70.9163 79.8914 70.8789 79.9289C70.8468 79.9609 70.8014 79.9796 70.7426 79.985H69.1389C69.0855 79.9796 69.0373 79.9583 68.9946 79.9208C68.9572 79.8834 68.9385 79.838 68.9385 79.7845V70.3951H67.2867C67.2332 70.3951 67.1878 70.3764 67.1504 70.339C67.113 70.3015 67.0942 70.2588 67.0942 70.2107V68.6551C67.0942 68.607 67.1103 68.5643 67.1424 68.5268C67.1798 68.4894 67.2252 68.4707 67.2787 68.4707H72.5788Z" fill="#A274FF"/>
<path d="M82.0619 73.426C82.0619 73.72 82.0031 73.9953 81.8855 74.2519C81.7679 74.5031 81.6075 74.7196 81.4044 74.9014C81.2012 75.0831 80.9687 75.2194 80.7068 75.3103L82.0619 79.7685C82.0672 79.822 82.0538 79.8701 82.0218 79.9128C81.9897 79.9502 81.9469 79.9743 81.8935 79.985H80.1134C80.0706 79.9796 80.0306 79.9636 79.9931 79.9369C79.9611 79.9048 79.9397 79.8647 79.929 79.8166L78.638 75.4306V79.7926C78.638 79.846 78.6193 79.8914 78.5819 79.9289C78.5445 79.9663 78.4991 79.985 78.4456 79.985H76.8339C76.7805 79.985 76.735 79.9663 76.6976 79.9289C76.6602 79.8914 76.6415 79.8433 76.6415 79.7845V68.6712C76.6415 68.6177 76.6602 68.5723 76.6976 68.5348C76.735 68.4921 76.7831 68.4707 76.8419 68.4707H78.4456C78.4509 68.4707 78.459 68.4734 78.4697 68.4787H80.2016C80.5544 68.5001 80.8698 68.6017 81.1478 68.7834C81.4257 68.9652 81.6476 69.2004 81.8133 69.489C81.979 69.7777 82.0619 70.0984 82.0619 70.4512V73.426ZM78.638 70.4753V73.41H79.7285C79.8194 73.3939 79.8942 73.3539 79.953 73.2897C80.0172 73.2256 80.0546 73.1454 80.0653 73.0492V70.8361C80.0546 70.7345 80.0172 70.6517 79.953 70.5875C79.8889 70.518 79.806 70.4806 79.7045 70.4753H78.638Z" fill="#A274FF"/>
<path d="M89.9172 79.985C89.8691 79.9796 89.8264 79.9636 89.7889 79.9369C89.7569 79.9048 89.7382 79.8647 89.7328 79.8166L89.5564 78.1488H88.2013L88.0249 79.8246C88.0142 79.8674 87.9928 79.9048 87.9608 79.9369C87.9287 79.9636 87.8886 79.9796 87.8405 79.985H86.0925C86.039 79.9743 85.9963 79.9502 85.9642 79.9128C85.9375 79.8701 85.9268 79.8193 85.9321 79.7605L87.4075 68.6551L87.4155 68.6311C87.4209 68.5883 87.4396 68.5536 87.4716 68.5268C87.5037 68.4948 87.5438 68.476 87.5919 68.4707H90.1658C90.2567 68.4867 90.3155 68.5375 90.3422 68.6231L91.8256 79.7685C91.8309 79.822 91.8176 79.8701 91.7855 79.9128C91.7534 79.9502 91.7107 79.9743 91.6572 79.985H89.9172ZM88.4098 76.1442H89.3479L88.8749 71.7261L88.4098 76.1442Z" fill="#A274FF"/>
<path d="M101.894 68.4707C101.942 68.4707 101.985 68.4894 102.022 68.5268C102.06 68.5643 102.081 68.6097 102.086 68.6631V79.7926C102.086 79.846 102.068 79.8914 102.03 79.9289C101.993 79.9663 101.947 79.985 101.894 79.985H100.282C100.277 79.985 100.274 79.985 100.274 79.985C100.269 79.985 100.264 79.985 100.258 79.985C100.258 79.985 100.256 79.985 100.25 79.985C100.245 79.985 100.242 79.9823 100.242 79.977C100.237 79.977 100.234 79.977 100.234 79.977C100.17 79.9609 100.125 79.9208 100.098 79.8567L97.7085 73.8831V79.7926C97.7031 79.846 97.6817 79.8914 97.6443 79.9289C97.6069 79.9663 97.5615 79.985 97.508 79.985H95.9043C95.8455 79.985 95.7974 79.9663 95.76 79.9289C95.7226 79.8914 95.7039 79.8433 95.7039 79.7845V68.6712C95.7039 68.6177 95.7226 68.5723 95.76 68.5348C95.8028 68.4921 95.8509 68.4707 95.9043 68.4707H97.508C97.5187 68.4707 97.5267 68.4734 97.5321 68.4787C97.5748 68.4734 97.6149 68.4814 97.6523 68.5028C97.6898 68.5188 97.7192 68.5482 97.7405 68.591L100.09 74.4443V68.6712C100.09 68.6177 100.109 68.5723 100.146 68.5348C100.183 68.4921 100.229 68.4707 100.282 68.4707H101.894Z" fill="#A274FF"/>
<path d="M109.621 68.4707C110.161 68.4974 110.61 68.6952 110.968 69.0641C111.332 69.4276 111.524 69.8819 111.545 70.4272V72.119C111.545 72.1725 111.527 72.2179 111.489 72.2553C111.452 72.2874 111.407 72.3061 111.353 72.3115H109.741C109.683 72.3061 109.634 72.2874 109.597 72.2553C109.565 72.2179 109.549 72.1725 109.549 72.119V70.8281C109.538 70.7265 109.495 70.6437 109.421 70.5795C109.351 70.51 109.266 70.4753 109.164 70.4753H108.338C108.226 70.4753 108.132 70.5127 108.058 70.5875C107.988 70.6624 107.953 70.7532 107.953 70.8602V72.4638L111.113 74.6448C111.118 74.6448 111.142 74.6635 111.185 74.7009C111.227 74.7383 111.276 74.7945 111.329 74.8693C111.388 74.9388 111.439 75.0243 111.481 75.1259C111.524 75.2275 111.545 75.3451 111.545 75.4787V78.1007C111.508 78.6299 111.31 79.0709 110.952 79.4237C110.599 79.7765 110.158 79.9636 109.629 79.985C109.618 79.985 109.61 79.985 109.605 79.985C109.6 79.985 109.597 79.985 109.597 79.985H107.921C107.916 79.985 107.913 79.985 107.913 79.985C107.903 79.985 107.894 79.985 107.889 79.985C107.344 79.9583 106.89 79.7632 106.526 79.3997C106.168 79.0362 105.981 78.5818 105.965 78.0365V76.3447C105.965 76.2912 105.981 76.2458 106.013 76.2084C106.05 76.171 106.096 76.1522 106.149 76.1522H107.769C107.822 76.1522 107.868 76.171 107.905 76.2084C107.943 76.2458 107.961 76.2912 107.961 76.3447V77.6356C107.972 77.7372 108.012 77.8227 108.082 77.8922C108.151 77.9564 108.239 77.9884 108.346 77.9884H109.172C109.279 77.9884 109.37 77.951 109.445 77.8762C109.52 77.8013 109.557 77.7105 109.557 77.6036V75.9999L106.39 73.8189C106.39 73.8189 106.368 73.8002 106.326 73.7628C106.283 73.7254 106.232 73.6719 106.173 73.6024C106.12 73.5276 106.072 73.4394 106.029 73.3378C105.986 73.2309 105.965 73.1133 105.965 72.985V70.363C105.997 69.8338 106.189 69.3928 106.542 69.04C106.9 68.6872 107.344 68.4974 107.873 68.4707C107.884 68.4707 107.894 68.4707 107.905 68.4707C107.905 68.4707 107.908 68.4707 107.913 68.4707H109.589C109.589 68.4707 109.592 68.4707 109.597 68.4707C109.602 68.4707 109.61 68.4707 109.621 68.4707Z" fill="#A274FF"/>
<path d="M120.179 70.4753H117.404V73.2336H119.73C119.783 73.2336 119.829 73.2523 119.866 73.2897C119.903 73.3218 119.925 73.3672 119.93 73.426V75.0377C119.925 75.0912 119.903 75.1366 119.866 75.174C119.834 75.2061 119.791 75.2248 119.738 75.2301H117.404V79.7926C117.399 79.846 117.378 79.8914 117.34 79.9289C117.308 79.9663 117.263 79.985 117.204 79.985H115.6C115.541 79.985 115.493 79.9663 115.456 79.9289C115.418 79.8914 115.4 79.8433 115.4 79.7845V68.6712C115.4 68.6177 115.418 68.5723 115.456 68.5348C115.499 68.4921 115.547 68.4707 115.6 68.4707H120.171C120.224 68.4707 120.27 68.4894 120.307 68.5268C120.344 68.5643 120.366 68.6097 120.371 68.6631V70.2828C120.366 70.3363 120.344 70.3817 120.307 70.4192C120.275 70.4512 120.232 70.4699 120.179 70.4753Z" fill="#A274FF"/>
<path d="M127.906 68.4707C128.446 68.4974 128.895 68.6952 129.253 69.0641C129.616 69.4276 129.809 69.8819 129.83 70.4272V78.0365C129.809 78.5764 129.616 79.0308 129.253 79.3997C128.895 79.7632 128.446 79.9583 127.906 79.985C127.895 79.985 127.887 79.985 127.882 79.985C127.876 79.985 127.874 79.985 127.874 79.985H126.198C126.192 79.985 126.19 79.985 126.19 79.985C126.179 79.985 126.171 79.985 126.166 79.985C125.631 79.9583 125.185 79.7712 124.827 79.4237C124.469 79.0709 124.273 78.6299 124.241 78.1007V70.355C124.273 69.8311 124.469 69.3928 124.827 69.04C125.185 68.6872 125.631 68.4974 126.166 68.4707C126.171 68.4707 126.179 68.4707 126.19 68.4707C126.19 68.4707 126.192 68.4707 126.198 68.4707H127.874C127.874 68.4707 127.876 68.4707 127.882 68.4707C127.887 68.4707 127.895 68.4707 127.906 68.4707ZM127.834 77.6276V70.8281C127.823 70.7265 127.78 70.6437 127.705 70.5795C127.636 70.51 127.55 70.4753 127.449 70.4753H126.623C126.511 70.4753 126.417 70.5127 126.342 70.5875C126.273 70.6624 126.238 70.7532 126.238 70.8602V77.6036C126.238 77.7105 126.273 77.8013 126.342 77.8762C126.417 77.9457 126.511 77.9831 126.623 77.9884H127.449C127.55 77.9831 127.636 77.9483 127.705 77.8842C127.78 77.8147 127.823 77.7292 127.834 77.6276Z" fill="#A274FF"/>
<path d="M139.121 73.426C139.121 73.72 139.062 73.9953 138.944 74.2519C138.827 74.5031 138.666 74.7196 138.463 74.9014C138.26 75.0831 138.028 75.2194 137.766 75.3103L139.121 79.7685C139.126 79.822 139.113 79.8701 139.081 79.9128C139.049 79.9502 139.006 79.9743 138.952 79.985H137.172C137.13 79.9796 137.089 79.9636 137.052 79.9369C137.02 79.9048 136.999 79.8647 136.988 79.8166L135.697 75.4306V79.7926C135.697 79.846 135.678 79.8914 135.641 79.9289C135.603 79.9663 135.558 79.985 135.505 79.985H133.893C133.839 79.985 133.794 79.9663 133.757 79.9289C133.719 79.8914 133.7 79.8433 133.7 79.7845V68.6712C133.7 68.6177 133.719 68.5723 133.757 68.5348C133.794 68.4921 133.842 68.4707 133.901 68.4707H135.505C135.51 68.4707 135.518 68.4734 135.529 68.4787H137.261C137.613 68.5001 137.929 68.6017 138.207 68.7834C138.485 68.9652 138.707 69.2004 138.872 69.489C139.038 69.7777 139.121 70.0984 139.121 70.4512V73.426ZM135.697 70.4753V73.41H136.787C136.878 73.3939 136.953 73.3539 137.012 73.2897C137.076 73.2256 137.114 73.1454 137.124 73.0492V70.8361C137.114 70.7345 137.076 70.6517 137.012 70.5875C136.948 70.518 136.865 70.4806 136.763 70.4753H135.697Z" fill="#A274FF"/>
<path d="M150.36 68.6712V79.7845C150.36 79.8433 150.341 79.8914 150.304 79.9289C150.266 79.9663 150.221 79.985 150.167 79.985H148.556C148.502 79.985 148.457 79.9663 148.419 79.9289C148.382 79.8914 148.363 79.846 148.363 79.7926V72.969L146.896 75.7914C146.875 75.8342 146.843 75.8663 146.8 75.8876C146.762 75.9037 146.722 75.9063 146.679 75.8957C146.637 75.9063 146.594 75.9037 146.551 75.8876C146.514 75.8663 146.484 75.8342 146.463 75.7914L144.996 72.969V79.7926C144.996 79.846 144.977 79.8914 144.94 79.9289C144.902 79.9663 144.857 79.985 144.803 79.985H143.192C143.138 79.985 143.093 79.9663 143.055 79.9289C143.018 79.8914 142.999 79.8433 142.999 79.7845V68.6712C142.999 68.6177 143.018 68.5723 143.055 68.5348C143.093 68.4921 143.138 68.4707 143.192 68.4707H144.803C144.878 68.4707 144.937 68.5054 144.98 68.5749L146.679 71.8785L148.387 68.5749C148.425 68.5054 148.481 68.4707 148.556 68.4707H150.167C150.221 68.4707 150.266 68.4921 150.304 68.5348C150.341 68.5723 150.36 68.6177 150.36 68.6712Z" fill="#A274FF"/>
<path d="M158.199 79.985C158.151 79.9796 158.108 79.9636 158.071 79.9369C158.039 79.9048 158.02 79.8647 158.015 79.8166L157.838 78.1488H156.483L156.307 79.8246C156.296 79.8674 156.275 79.9048 156.243 79.9369C156.211 79.9636 156.171 79.9796 156.122 79.985H154.374C154.321 79.9743 154.278 79.9502 154.246 79.9128C154.219 79.8701 154.209 79.8193 154.214 79.7605L155.689 68.6551L155.698 68.6311C155.703 68.5883 155.722 68.5536 155.754 68.5268C155.786 68.4948 155.826 68.476 155.874 68.4707H158.448C158.539 68.4867 158.597 68.5375 158.624 68.6231L160.108 79.7685C160.113 79.822 160.1 79.8701 160.067 79.9128C160.035 79.9502 159.993 79.9743 159.939 79.985H158.199ZM156.692 76.1442H157.63L157.157 71.7261L156.692 76.1442Z" fill="#A274FF"/>
<path d="M169.446 68.4707C169.5 68.4707 169.545 68.4894 169.583 68.5268C169.62 68.5589 169.639 68.6017 169.639 68.6551V70.2107C169.639 70.2641 169.62 70.3096 169.583 70.347C169.545 70.3791 169.497 70.3951 169.438 70.3951H167.811V79.7845C167.805 79.8433 167.784 79.8914 167.746 79.9289C167.714 79.9609 167.669 79.9796 167.61 79.985H166.006C165.953 79.9796 165.905 79.9583 165.862 79.9208C165.825 79.8834 165.806 79.838 165.806 79.7845V70.3951H164.154C164.101 70.3951 164.055 70.3764 164.018 70.339C163.981 70.3015 163.962 70.2588 163.962 70.2107V68.6551C163.962 68.607 163.978 68.5643 164.01 68.5268C164.047 68.4894 164.093 68.4707 164.146 68.4707H169.446Z" fill="#A274FF"/>
<path d="M175.514 68.6631V79.7926C175.508 79.846 175.487 79.8914 175.449 79.9289C175.417 79.9663 175.372 79.985 175.313 79.985H173.71C173.651 79.985 173.603 79.9663 173.565 79.9289C173.528 79.8914 173.509 79.8433 173.509 79.7845V68.6712C173.509 68.6177 173.528 68.5723 173.565 68.5348C173.608 68.4921 173.656 68.4707 173.71 68.4707H175.313C175.367 68.4707 175.412 68.4894 175.449 68.5268C175.487 68.5643 175.508 68.6097 175.514 68.6631Z" fill="#A274FF"/>
<path d="M183.04 68.4707C183.58 68.4974 184.029 68.6952 184.387 69.0641C184.751 69.4276 184.943 69.8819 184.965 70.4272V78.0365C184.943 78.5764 184.751 79.0308 184.387 79.3997C184.029 79.7632 183.58 79.9583 183.04 79.985C183.03 79.985 183.022 79.985 183.016 79.985C183.011 79.985 183.008 79.985 183.008 79.985H181.332C181.327 79.985 181.324 79.985 181.324 79.985C181.314 79.985 181.306 79.985 181.3 79.985C180.766 79.9583 180.319 79.7712 179.961 79.4237C179.603 79.0709 179.408 78.6299 179.376 78.1007V70.355C179.408 69.8311 179.603 69.3928 179.961 69.04C180.319 68.6872 180.766 68.4974 181.3 68.4707C181.306 68.4707 181.314 68.4707 181.324 68.4707C181.324 68.4707 181.327 68.4707 181.332 68.4707H183.008C183.008 68.4707 183.011 68.4707 183.016 68.4707C183.022 68.4707 183.03 68.4707 183.04 68.4707ZM182.968 77.6276V70.8281C182.957 70.7265 182.915 70.6437 182.84 70.5795C182.77 70.51 182.685 70.4753 182.583 70.4753H181.757C181.645 70.4753 181.552 70.5127 181.477 70.5875C181.407 70.6624 181.372 70.7532 181.372 70.8602V77.6036C181.372 77.7105 181.407 77.8013 181.477 77.8762C181.552 77.9457 181.645 77.9831 181.757 77.9884H182.583C182.685 77.9831 182.77 77.9483 182.84 77.8842C182.915 77.8147 182.957 77.7292 182.968 77.6276Z" fill="#A274FF"/>
<path d="M195.025 68.4707C195.073 68.4707 195.116 68.4894 195.153 68.5268C195.191 68.5643 195.212 68.6097 195.217 68.6631V79.7926C195.217 79.846 195.199 79.8914 195.161 79.9289C195.124 79.9663 195.079 79.985 195.025 79.985H193.413C193.408 79.985 193.405 79.985 193.405 79.985C193.4 79.985 193.395 79.985 193.389 79.985C193.389 79.985 193.387 79.985 193.381 79.985C193.376 79.985 193.373 79.9823 193.373 79.977C193.368 79.977 193.365 79.977 193.365 79.977C193.301 79.9609 193.256 79.9208 193.229 79.8567L190.84 73.8831V79.7926C190.834 79.846 190.813 79.8914 190.775 79.9289C190.738 79.9663 190.693 79.985 190.639 79.985H189.035C188.977 79.985 188.928 79.9663 188.891 79.9289C188.854 79.8914 188.835 79.8433 188.835 79.7845V68.6712C188.835 68.6177 188.854 68.5723 188.891 68.5348C188.934 68.4921 188.982 68.4707 189.035 68.4707H190.639C190.65 68.4707 190.658 68.4734 190.663 68.4787C190.706 68.4734 190.746 68.4814 190.783 68.5028C190.821 68.5188 190.85 68.5482 190.872 68.591L193.221 74.4443V68.6712C193.221 68.6177 193.24 68.5723 193.277 68.5348C193.314 68.4921 193.36 68.4707 193.413 68.4707H195.025Z" fill="#A274FF"/>
</svg>
