<svg width="100" height="100" viewBox="0 0 100 100" fill="none" xmlns="http://www.w3.org/2000/svg">
<path d="M76.5885 57.5292C76.5913 58.5726 76.3874 59.6062 75.9886 60.5704C75.5898 61.5346 75.004 62.4103 74.265 63.1469C73.9268 63.4775 73.4733 63.6638 73.0003 63.6665C72.6465 63.6677 72.3004 63.5636 72.0058 63.3677C71.7113 63.1717 71.4817 62.8926 71.3461 62.5658C71.2106 62.239 71.1752 61.8793 71.2446 61.5324C71.3139 61.1855 71.4848 60.867 71.7356 60.6174C72.551 59.7965 73.0086 58.6863 73.0086 57.5292C73.0086 56.3721 72.551 55.2619 71.7356 54.441C71.4002 54.1055 71.2117 53.6506 71.2117 53.1763C71.2117 52.7019 71.4002 52.247 71.7356 51.9116C72.071 51.5761 72.5259 51.3877 73.0003 51.3877C73.4747 51.3877 73.9296 51.5761 74.265 51.9116C75.004 52.6481 75.5898 53.5238 75.9886 54.488C76.3874 55.4522 76.5913 56.4858 76.5885 57.5292Z" fill="white"/>
<path d="M42.0193 41.7551L35.833 35.5688L35.9212 35.6473L42.0193 41.7551Z" fill="#46BFD3"/>
<path d="M78.137 41.8824C77.8037 41.4903 77.4508 41.1177 77.088 40.7648L65.941 29.6177C64.9484 28.625 63.6599 27.982 62.2699 27.7857C60.8799 27.5894 59.4637 27.8504 58.2351 28.5295L49.8037 20.0883C48.4887 18.7826 46.7108 18.0498 44.8576 18.0498C43.0045 18.0498 41.2265 18.7826 39.9116 20.0883C39.0514 20.9414 38.4324 22.0068 38.1174 23.1766C36.7386 22.015 34.9642 21.4311 33.165 21.5468C31.3657 21.6626 29.6808 22.4691 28.4622 23.7978C27.2436 25.1266 26.5854 26.8748 26.6253 28.6773C26.6652 30.4798 27.4 32.1972 28.6763 33.4707L29.0782 33.8726C27.9052 34.2051 26.8393 34.8382 25.9861 35.7093C25.133 36.5803 24.5221 37.6591 24.2141 38.8388C23.906 40.0185 23.9114 41.2582 24.2298 42.4352C24.5482 43.6122 25.1684 44.6856 26.0292 45.5491L27.2449 46.7648C26.0892 47.0807 25.0374 47.6963 24.1959 48.5491C22.8907 49.8624 22.1582 51.6388 22.1582 53.4903C22.1582 55.3418 22.8907 57.1182 24.1959 58.4315L41.8429 76.0785C46.5482 80.8082 52.9361 83.4804 59.6076 83.5099H59.7449C63.0058 83.5208 66.2366 82.8853 69.2505 81.64C72.2643 80.3947 75.0015 78.5645 77.3037 76.255C81.8042 71.7148 84.3977 65.6252 84.5526 59.2344C84.7076 52.8435 82.4122 46.6354 78.137 41.8824ZM74.7351 73.6962C72.7541 75.6915 70.3926 77.2689 67.7908 78.3349C65.189 79.4009 62.3996 79.9338 59.588 79.9021C56.7511 79.8953 53.9434 79.3289 51.3258 78.2354C48.7081 77.1419 46.3318 75.5427 44.3331 73.5295L26.6861 55.8824C26.3701 55.5661 26.1206 55.1898 25.9522 54.7756C25.7839 54.3614 25.7 53.9177 25.7057 53.4707C25.7004 53.0222 25.7843 52.5772 25.9526 52.1614C26.1209 51.7457 26.3703 51.3676 26.6861 51.0491C27.3405 50.4342 28.2047 50.092 29.1027 50.092C30.0007 50.092 30.8649 50.4342 31.5194 51.0491L43.8625 63.3726C44.2024 63.6771 44.646 63.8398 45.1021 63.8273C45.5582 63.8148 45.9922 63.628 46.3149 63.3054C46.6375 62.9827 46.8243 62.5487 46.8368 62.0926C46.8493 61.6365 46.6866 61.1929 46.3821 60.853L34.088 48.5491L28.5586 43.0197C27.9186 42.3783 27.5592 41.5091 27.5592 40.603C27.5592 39.6969 27.9186 38.8278 28.5586 38.1864C29.2108 37.5671 30.0759 37.2218 30.9753 37.2218C31.8747 37.2218 32.7397 37.5671 33.392 38.1864L48.539 53.3334C48.8744 53.6675 49.3288 53.8547 49.8023 53.8538C50.2757 53.8529 50.7294 53.6639 51.0635 53.3285C51.3976 52.9931 51.5848 52.5387 51.5839 52.0653C51.583 51.5918 51.394 51.1381 51.0586 50.804L31.1959 30.9413C30.5606 30.2973 30.2045 29.4291 30.2045 28.5246C30.2045 27.6201 30.5606 26.7519 31.1959 26.1079C31.8508 25.4902 32.7171 25.1462 33.6174 25.1462C34.5178 25.1462 35.384 25.4902 36.039 26.1079L39.9606 30.0295L44.4704 34.5393L53.2939 43.3628C53.6293 43.6983 54.0843 43.8867 54.5586 43.8867C55.033 43.8867 55.4879 43.6983 55.8233 43.3628C56.1587 43.0274 56.3472 42.5725 56.3472 42.0981C56.3472 41.6238 56.1587 41.1688 55.8233 40.8334L46.9998 32.0099L42.441 27.4511C41.801 26.8096 41.4416 25.9405 41.4416 25.0344C41.4416 24.1283 41.801 23.2592 42.441 22.6177C43.0932 21.9985 43.9583 21.6532 44.8576 21.6532C45.757 21.6532 46.6221 21.9985 47.2743 22.6177L55.7057 31.0589C55.0282 32.288 54.768 33.7038 54.9643 35.0934C55.1605 36.483 55.8026 37.7714 56.7939 38.7648L61.4214 43.3922C60.0093 45.1975 59.2602 47.433 59.2995 49.7246C59.3388 52.0161 60.164 54.2247 61.637 55.9805C61.6712 56.0245 61.7107 56.064 61.7547 56.0981C62.066 56.4178 62.4869 56.6076 62.9325 56.6294C63.3782 56.6513 63.8156 56.5035 64.1567 56.2158C64.3374 56.0655 64.4867 55.881 64.5959 55.6728C64.7051 55.4647 64.7721 55.237 64.7931 55.0028C64.814 54.7687 64.7885 54.5327 64.718 54.3085C64.6475 54.0843 64.5333 53.8762 64.3821 53.6962C63.3419 52.4561 62.8067 50.8698 62.883 49.253C62.9593 47.6361 63.6415 46.1073 64.7939 44.9707C64.8543 44.9035 64.9198 44.8412 64.99 44.7844C65.1939 44.6297 65.3624 44.4331 65.4841 44.2079C65.6058 43.9827 65.6779 43.7341 65.6955 43.4787C65.7132 43.2233 65.676 42.9671 65.5864 42.7273C65.4968 42.4875 65.357 42.2696 65.1763 42.0883L59.2939 36.206C58.9016 35.6392 58.7209 34.9526 58.7833 34.2661C58.8456 33.5796 59.1471 32.9368 59.6351 32.45C60.1231 31.9631 60.7666 31.6632 61.4533 31.6024C62.1399 31.5417 62.8261 31.7241 63.392 32.1177L74.5096 43.2844C74.8135 43.5883 75.0978 43.8923 75.392 44.2648C79.0552 48.3296 81.0275 53.6403 80.9054 59.1109C80.7833 64.5815 78.5761 69.7988 74.7351 73.6962Z" fill="#46BFD3"/>
<path d="M76.5885 57.5292C76.5913 58.5726 76.3874 59.6062 75.9886 60.5704C75.5898 61.5346 75.004 62.4103 74.265 63.1469C73.9268 63.4775 73.4733 63.6638 73.0003 63.6665C72.6465 63.6677 72.3004 63.5636 72.0058 63.3677C71.7113 63.1717 71.4817 62.8926 71.3461 62.5658C71.2106 62.239 71.1752 61.8793 71.2446 61.5324C71.3139 61.1855 71.4848 60.867 71.7356 60.6174C72.551 59.7965 73.0086 58.6863 73.0086 57.5292C73.0086 56.3721 72.551 55.2619 71.7356 54.441C71.4002 54.1055 71.2117 53.6506 71.2117 53.1763C71.2117 52.7019 71.4002 52.247 71.7356 51.9116C72.071 51.5761 72.5259 51.3877 73.0003 51.3877C73.4747 51.3877 73.9296 51.5761 74.265 51.9116C75.004 52.6481 75.5898 53.5238 75.9886 54.488C76.3874 55.4522 76.5913 56.4858 76.5885 57.5292Z" fill="#46BFD3"/>
<path d="M69.3035 28.5688C69.0691 28.5688 68.8371 28.5226 68.6206 28.4329C68.4041 28.3433 68.2075 28.2118 68.0418 28.0461C67.8761 27.8804 67.7446 27.6837 67.655 27.4673C67.5653 27.2508 67.5191 27.0188 67.5191 26.7844C67.5166 25.6282 67.0561 24.52 66.2385 23.7024C65.4209 22.8848 64.3127 22.4243 63.1564 22.4217C62.6819 22.4217 62.2268 22.2332 61.8912 21.8976C61.5557 21.5621 61.3672 21.107 61.3672 20.6325C61.3672 20.1579 61.5557 19.7029 61.8912 19.3673C62.2268 19.0318 62.6819 18.8433 63.1564 18.8433C65.2617 18.8459 67.2801 19.6833 68.7688 21.172C70.2575 22.6607 71.095 24.6791 71.0976 26.7844C71.0976 27.0196 71.0511 27.2524 70.9608 27.4695C70.8705 27.6867 70.7382 27.8838 70.5715 28.0496C70.4048 28.2154 70.2069 28.3467 69.9893 28.4358C69.7717 28.5248 69.5386 28.57 69.3035 28.5688Z" fill="#46BFD3"/>
<path d="M75.4216 28.1962C74.9484 28.1962 74.4946 28.0082 74.1599 27.6736C73.8253 27.3389 73.6373 26.8851 73.6373 26.4119C73.6347 23.7302 72.5676 21.1592 70.6705 19.2639C68.7733 17.3686 66.2014 16.304 63.5197 16.304C63.0452 16.304 62.5901 16.1155 62.2545 15.78C61.919 15.4444 61.7305 14.9893 61.7305 14.5148C61.7305 14.0403 61.919 13.5852 62.2545 13.2496C62.5901 12.9141 63.0452 12.7256 63.5197 12.7256C67.1599 12.7256 70.651 14.1717 73.2251 16.7457C75.7991 19.3197 77.2452 22.8108 77.2452 26.4511C77.2401 26.6854 77.1889 26.9164 77.0945 27.131C77 27.3455 76.8643 27.5394 76.695 27.7014C76.5256 27.8635 76.326 27.9906 76.1075 28.0755C75.889 28.1604 75.656 28.2014 75.4216 28.1962Z" fill="#46BFD3"/>
<path d="M25.7361 72.1371C23.6308 72.1345 21.6124 71.297 20.1237 69.8084C18.635 68.3197 17.7975 66.3013 17.7949 64.196C17.7949 63.7214 17.9834 63.2663 18.319 62.9308C18.6545 62.5952 19.1096 62.4067 19.5841 62.4067C20.0587 62.4067 20.5138 62.5952 20.8493 62.9308C21.1848 63.2663 21.3734 63.7214 21.3734 64.196C21.3759 65.3522 21.8364 66.4604 22.654 67.278C23.4716 68.0956 24.5798 68.5561 25.7361 68.5587C26.2106 68.5587 26.6657 68.7472 27.0013 69.0828C27.3368 69.4183 27.5253 69.8734 27.5253 70.3479C27.5253 70.8224 27.3368 71.2775 27.0013 71.6131C26.6657 71.9486 26.2106 72.1371 25.7361 72.1371Z" fill="#46BFD3"/>
<path d="M25.3632 78.2549C21.723 78.2549 18.2318 76.8089 15.6578 74.2348C13.0838 71.6608 11.6377 68.1697 11.6377 64.5295C11.6377 64.0549 11.8262 63.5998 12.1617 63.2643C12.4973 62.9287 12.9524 62.7402 13.4269 62.7402C13.9014 62.7402 14.3565 62.9287 14.6921 63.2643C15.0276 63.5998 15.2161 64.0549 15.2161 64.5295C15.2122 65.8631 15.4721 67.1843 15.9806 68.4172C16.4892 69.65 17.2365 70.7701 18.1795 71.7132C19.1225 72.6562 20.2426 73.4035 21.4755 73.912C22.7083 74.4206 24.0296 74.6804 25.3632 74.6765C25.8377 74.6765 26.2928 74.865 26.6284 75.2006C26.9639 75.5361 27.1524 75.9912 27.1524 76.4657C27.1524 76.9403 26.9639 77.3953 26.6284 77.7309C26.2928 78.0664 25.8377 78.2549 25.3632 78.2549Z" fill="#46BFD3"/>
</svg>
