<svg width="328" height="184" viewBox="0 0 328 184" fill="none" xmlns="http://www.w3.org/2000/svg">
<g clip-path="url(#clip0_945_1063)">
<rect width="328" height="184" rx="8" fill="white"/>
<rect width="328" height="184" fill="#1E2B32"/>
<g clip-path="url(#clip1_945_1063)">
<path d="M184.25 107.75V76.25C184.25 73.775 182.225 71.75 179.75 71.75H148.25C145.775 71.75 143.75 73.775 143.75 76.25V107.75C143.75 110.225 145.775 112.25 148.25 112.25H179.75C182.225 112.25 184.25 110.225 184.25 107.75ZM157.025 96.455L161.75 102.148L168.725 93.17C169.175 92.585 170.075 92.585 170.525 93.1925L178.422 103.722C178.985 104.465 178.445 105.523 177.523 105.523H150.545C149.6 105.523 149.083 104.443 149.668 103.7L155.27 96.5C155.697 95.915 156.552 95.8925 157.025 96.455V96.455Z" fill="#829AB1"/>
</g>
</g>
<defs>
<clipPath id="clip0_945_1063">
<rect width="328" height="184" rx="8" fill="white"/>
</clipPath>
<clipPath id="clip1_945_1063">
<rect width="54" height="54" fill="white" transform="translate(137 65)"/>
</clipPath>
</defs>
</svg>
