<svg width="132" height="106" viewBox="0 0 132 106" fill="none" xmlns="http://www.w3.org/2000/svg">
<path d="M33.6528 96.0841C33.6528 96.0841 65.8013 69.4896 70.6198 37.1748C75.4383 4.86007 50.7096 14.2 50.7096 14.2C50.7096 14.2 59.5071 7.65831 70.6198 11.4731C81.7325 15.2841 77.5878 39.1028 72.6451 49.5831C67.7061 60.0671 52.9909 86.2115 33.6528 96.0841Z" fill="#56C6C1"/>
<path d="M21.6932 99.9508C21.6932 99.9508 15.4969 102.487 9.53399 96.0873C4.36915 90.5396 5.86741 72.8612 9.53399 65.1942C13.2006 57.5272 20.0105 39.2636 38.6784 23.0668L41.8745 20.3774L41.8594 18.8732C41.8594 18.8732 22.9242 29.8936 9.69586 54.1888C-1.8648 75.4231 -1.93632 94.6807 3.48827 99.2382C7.99809 103.023 16.6413 104.107 21.6932 99.9508Z" fill="#56C6C1"/>
<path d="M3.48828 99.2385C3.48828 99.2385 7.76471 107.761 18.7946 104.175C29.8244 100.589 35.5991 89.8235 38.494 75.3972C41.3889 60.9672 43.6664 41.5933 43.6664 41.5933H67.2507V35.4079H44.7016C44.7016 35.4079 45.0366 12.4519 55.6637 5.72637C55.6637 5.72637 59.0555 3.72709 65.3873 4.69485C72.9652 5.8539 73.8686 4.07593 73.8686 2.83811C73.8686 1.60028 71.8961 -0.6128 63.938 0.159904C57.832 0.75256 49.3432 4.36101 44.2875 13.7647C40.5268 20.7528 37.5115 30.4379 37.3308 35.3854L26.0826 35.2016V41.1807H35.8062L31.8761 70.656C31.8761 70.656 28.4391 94.2647 21.6932 99.9549C16.5133 104.317 8.34443 102.802 3.48828 99.2385Z" fill="white"/>
<path d="M46.249 57.4261V89.2683H52.7917L53.0439 66.8786C53.0514 66.3685 53.1681 65.8734 53.4053 65.4232C54.0979 64.1066 55.9839 61.7473 60.6368 61.7473C64.9019 61.7473 66.5696 63.4165 67.3112 64.5905C67.6349 65.1044 67.7893 65.7083 67.7817 66.316L67.6801 89.2683H73.8726L74.1173 67.3963C74.1286 66.2372 74.5276 65.1044 75.3031 64.2417C76.3986 63.0226 78.405 61.6535 81.8796 61.6535C86.2615 61.6535 88.091 64.3355 88.7949 65.9446C89.0698 66.5748 89.1902 67.265 89.1902 67.9552L89.2053 89.272H94.9912V66.541C94.9912 65.4683 94.7616 64.4067 94.2986 63.439C93.1655 61.0721 90.3534 57.4787 83.8974 57.1261C76.0108 56.6984 73.1235 62.2124 73.1235 62.2124C73.1235 62.2124 70.2813 57.1148 61.7097 57.1148C55.8672 57.1148 52.7013 61.3909 52.7013 61.3909L52.7917 57.4674L46.249 57.4261Z" fill="white"/>
<path d="M126.138 41.1017V60.3668C126.138 59.1439 120.409 57.1034 116.93 57.1034C113.452 57.1034 101.376 59.249 101.376 72.7263C101.376 86.2036 112.003 89.2794 117.326 89.2869C122.923 89.2944 126.138 86.5787 126.138 86.5787V89.2719H131.868V41.1017H126.138ZM117.954 85.2508C109.394 84.4781 108.039 77.4713 108.039 73.7165C108.039 68.5814 110.41 62.1822 117.265 62.1822C124.12 62.1822 126.138 64.7667 126.138 64.7667V83.109C124.907 84.1143 122.49 85.6597 117.954 85.2508Z" fill="white"/>
</svg>
